# xmcd
#
# Track frame offsets:
#	150
#	37510
#	58282
#	91750
#	132385
#
# Disc length: 2196 seconds
#
# Revision: 0
# Processed by: cddbd v1.4PL0 Copyright (c) Steve Scherf et al.
# Submitted via: dBpowerAMP V4.0
#
DISCID=37089205
DTITLE=Eric clapton - Just one night
DYEAR=1900
DGENRE=
TTITLE0=Double Trouble
TTITLE1=Setting Me Up
TTITLE2=Blues Power
TTITLE3=Rambling On My Mind
TTITLE4=Further On The Road
EXTD=Just one night
EXTD=GENRE: Blues
EXTT0=
EXTT1=
EXTT2=
EXTT3=
EXTT4=
PLAYORDER=
